<svg width="19" height="20" viewBox="0 0 19 20" fill="none" xmlns="http://www.w3.org/2000/svg">
<path d="M9.5 19.9248C7.62108 19.9248 5.78435 19.3606 4.22209 18.3035C2.65982 17.2465 1.44218 15.7441 0.723149 13.9863C0.00411618 12.2285 -0.184015 10.2942 0.182544 8.42818C0.549104 6.56211 1.45389 4.84801 2.78249 3.50265C4.11109 2.15729 5.80383 1.24109 7.64664 0.869906C9.48946 0.498722 11.3996 0.689227 13.1355 1.41733C14.8714 2.14543 16.3551 3.37844 17.399 4.96041C18.4428 6.54239 19 8.40229 19 10.3049C18.9972 12.8554 17.9954 15.3006 16.2144 17.1041C14.4334 18.9075 12.0187 19.922 9.5 19.9248ZM9.5 1.65344C7.81022 1.65344 6.15839 2.16084 4.75338 3.11148C3.34838 4.06211 2.25332 5.41329 1.60667 6.99414C0.960014 8.57499 0.79082 10.3145 1.12048 11.9927C1.45014 13.671 2.26385 15.2125 3.4587 16.4224C4.65356 17.6324 6.1759 18.4563 7.83321 18.7902C9.49053 19.124 11.2084 18.9527 12.7695 18.2978C14.3307 17.643 15.665 16.5341 16.6038 15.1114C17.5426 13.6887 18.0437 12.016 18.0437 10.3049C18.0412 8.01119 17.1402 5.81214 15.5385 4.19023C13.9368 2.56832 11.7652 1.656 9.5 1.65344Z" fill="white"/>
<path d="M11.89 11.7573C11.8884 12.2704 11.6864 12.7622 11.3281 13.1251C10.9697 13.4879 10.4841 13.6925 9.97733 13.694V14.6721C9.97733 14.8005 9.92696 14.9236 9.83728 15.0144C9.74761 15.1052 9.62599 15.1563 9.49918 15.1563C9.37236 15.1563 9.25074 15.1052 9.16107 15.0144C9.0714 14.9236 9.02102 14.8005 9.02102 14.6721V13.694H7.82563C7.69882 13.694 7.5772 13.643 7.48752 13.5522C7.39785 13.4614 7.34748 13.3382 7.34748 13.2098C7.34748 13.0814 7.39785 12.9583 7.48752 12.8674C7.5772 12.7766 7.69882 12.7256 7.82563 12.7256H9.97733C10.231 12.7256 10.4742 12.6236 10.6535 12.442C10.8329 12.2604 10.9336 12.0141 10.9336 11.7573C10.9336 11.5004 10.8329 11.2541 10.6535 11.0725C10.4742 10.8909 10.231 10.7889 9.97733 10.7889H9.02102C8.51376 10.7889 8.02728 10.5848 7.66859 10.2216C7.30991 9.85841 7.1084 9.36579 7.1084 8.85213C7.1084 8.33847 7.30991 7.84585 7.66859 7.48264C8.02728 7.11942 8.51376 6.91537 9.02102 6.91537V5.93731C9.02102 5.8089 9.0714 5.68574 9.16107 5.59494C9.25074 5.50414 9.37236 5.45312 9.49918 5.45312C9.62599 5.45312 9.74761 5.50414 9.83728 5.59494C9.92696 5.68574 9.97733 5.8089 9.97733 5.93731V6.91537H11.1727C11.2995 6.91537 11.4212 6.96639 11.5108 7.05719C11.6005 7.14799 11.6509 7.27115 11.6509 7.39956C11.6509 7.52798 11.6005 7.65113 11.5108 7.74194C11.4212 7.83274 11.2995 7.88375 11.1727 7.88375H9.02102C8.76739 7.88375 8.52415 7.98578 8.34481 8.16738C8.16546 8.34899 8.06471 8.5953 8.06471 8.85213C8.06471 9.10896 8.16546 9.35527 8.34481 9.53687C8.52415 9.71848 8.76739 9.8205 9.02102 9.8205H9.97733C10.4841 9.82204 10.9697 10.0266 11.3281 10.3895C11.6864 10.7523 11.8884 11.2441 11.89 11.7573Z" fill="white"/>
</svg>
