<svg width="52" height="32" viewBox="0 0 52 32" fill="none" xmlns="http://www.w3.org/2000/svg">
<path d="M15.756 28.7835C22.816 28.7835 28.5393 23.0602 28.5393 16.0001C28.5393 8.94009 22.816 3.2168 15.756 3.2168C8.69595 3.2168 2.97266 8.94009 2.97266 16.0001C2.97266 23.0602 8.69595 28.7835 15.756 28.7835Z" stroke="#1185ED" stroke-width="5" stroke-linecap="round" stroke-linejoin="round"/>
<path d="M48.5245 17.5381C49.3529 17.5381 50.0245 16.8665 50.0245 16.0381C50.0245 15.2097 49.3529 14.5381 48.5245 14.5381H40.9891H26.0391C25.2106 14.5381 24.5391 15.2097 24.5391 16.0381C24.5391 16.8665 25.2106 17.5381 26.0391 17.5381H39.4891V22.1902C39.4891 23.0186 40.1606 23.6902 40.9891 23.6902C41.8175 23.6902 42.4891 23.0186 42.4891 22.1902V17.5381H48.5245Z" stroke="#1185ED" stroke-width="3" stroke-linecap="round" stroke-linejoin="round"/>
</svg>
