<svg width="25" height="24" viewBox="0 0 25 24" fill="none" xmlns="http://www.w3.org/2000/svg">
<path d="M21.5 11.9999C21.503 13.7866 20.9715 15.5335 19.974 17.0159C19.1514 18.2428 18.0391 19.2482 16.7355 19.943C15.4319 20.6379 13.9772 21.0009 12.5 20.9999C11.0228 21.0009 9.56808 20.6379 8.26451 19.943C6.96093 19.2482 5.84865 18.2428 5.026 17.0159C4.24273 15.8483 3.7439 14.5134 3.56951 13.1183C3.39511 11.7232 3.55 10.3066 4.02175 8.98215C4.4935 7.65768 5.269 6.46216 6.28607 5.49142C7.30314 4.52068 8.5335 3.80173 9.87851 3.39221C11.2235 2.98268 12.6458 2.89396 14.0312 3.13317C15.4167 3.37238 16.7269 3.93286 17.8567 4.76969C18.9865 5.60651 19.9046 6.69639 20.5373 7.95197C21.17 9.20755 21.4997 10.5939 21.5 11.9999Z" stroke="white"/>
<path d="M14.0004 9C14.0004 9.39782 13.8423 9.77936 13.561 10.0607C13.2797 10.342 12.8982 10.5 12.5004 10.5V11.5C12.8287 11.5 13.1538 11.4353 13.4571 11.3097C13.7604 11.1841 14.036 10.9999 14.2681 10.7678C14.5003 10.5356 14.6844 10.26 14.8101 9.95671C14.9357 9.65339 15.0004 9.3283 15.0004 9H14.0004ZM12.5004 10.5C12.1026 10.5 11.721 10.342 11.4397 10.0607C11.1584 9.77936 11.0004 9.39782 11.0004 9H10.0004C10.0004 9.3283 10.065 9.65339 10.1907 9.95671C10.3163 10.26 10.5005 10.5356 10.7326 10.7678C11.2014 11.2366 11.8373 11.5 12.5004 11.5V10.5ZM11.0004 9C11.0004 8.60218 11.1584 8.22064 11.4397 7.93934C11.721 7.65804 12.1026 7.5 12.5004 7.5V6.5C11.8373 6.5 11.2014 6.76339 10.7326 7.23223C10.2638 7.70107 10.0004 8.33696 10.0004 9H11.0004ZM12.5004 7.5C12.8982 7.5 13.2797 7.65804 13.561 7.93934C13.8423 8.22064 14.0004 8.60218 14.0004 9H15.0004C15.0004 8.33696 14.737 7.70107 14.2681 7.23223C13.7993 6.76339 13.1634 6.5 12.5004 6.5V7.5ZM5.66637 17.856L5.18637 17.714L5.10938 17.975L5.28637 18.182L5.66637 17.856ZM19.3344 17.856L19.7144 18.182L19.8914 17.975L19.8134 17.714L19.3344 17.856ZM9.50037 15.5H15.5004V14.5H9.50037V15.5ZM9.50037 14.5C8.53131 14.5002 7.58817 14.813 6.81112 15.3921C6.03408 15.9711 5.46362 16.7854 5.18637 17.714L6.14537 17.999C6.36123 17.2769 6.80429 16.6437 7.40872 16.1935C8.01315 15.7433 8.7467 15.5001 9.50037 15.5V14.5ZM12.5004 20.5C11.2736 20.5013 10.0612 20.2364 8.9468 19.7237C7.83237 19.2109 6.84246 18.4625 6.04537 17.53L5.28637 18.182C6.17743 19.2238 7.28381 20.0599 8.52924 20.6327C9.77468 21.2055 11.1295 21.5014 12.5004 21.5V20.5ZM15.5004 15.5C16.2542 15.5001 16.9878 15.7435 17.5923 16.1939C18.1967 16.6443 18.6397 17.2777 18.8554 18L19.8134 17.714C19.5361 16.7854 18.9667 15.9711 18.1896 15.3921C17.4126 14.813 16.4694 14.5002 15.5004 14.5V15.5ZM18.9554 17.53C18.1583 18.4625 17.1684 19.2109 16.0539 19.7237C14.9395 20.2364 13.7271 20.5013 12.5004 20.5V21.5C13.8712 21.5014 15.2261 21.2055 16.4715 20.6327C17.7169 20.0599 18.8233 19.2238 19.7144 18.182L18.9554 17.53Z" fill="white"/>
</svg>
